<?xml version="1.0" encoding="UTF-8" standalone="no"?>
<!-- Created with Inkscape (http://www.inkscape.org/) -->

<svg
   xmlns:dc="http://purl.org/dc/elements/1.1/"
   xmlns:cc="http://creativecommons.org/ns#"
   xmlns:rdf="http://www.w3.org/1999/02/22-rdf-syntax-ns#"
   xmlns:svg="http://www.w3.org/2000/svg"
   xmlns="http://www.w3.org/2000/svg"
   xmlns:sodipodi="http://sodipodi.sourceforge.net/DTD/sodipodi-0.dtd"
   xmlns:inkscape="http://www.inkscape.org/namespaces/inkscape"
   width="440"
   height="210"
   id="svg2"
   version="1.1"
   inkscape:version="0.48.4 r9939"
   sodipodi:docname="vga-clr-md.svg">
  <defs
     id="defs4">
    <linearGradient
       id="linearGradient4054">
      <stop
         style="stop-color:#00003f;stop-opacity:1;"
         offset="0"
         id="stop4056" />
      <stop
         style="stop-color:#478fb9;stop-opacity:1;"
         offset="1"
         id="stop4058" />
    </linearGradient>
    <clipPath
       clipPathUnits="userSpaceOnUse"
       id="clipPath3869">
      <rect
         style="opacity:0.65843626;fill:#7a7a7a;fill-opacity:0.32420092;stroke:none"
         id="rect3871"
         width="613.99524"
         height="249.67441"
         x="57.323208"
         y="77.867676"
         ry="73.564781"
         clip-path="none" />
    </clipPath>
    <clipPath
       clipPathUnits="userSpaceOnUse"
       id="clipPath3869-8">
      <rect
         style="opacity:0.65843626;fill:#7a7a7a;fill-opacity:0.32420092;stroke:none"
         id="rect3871-2"
         width="613.99524"
         height="249.67441"
         x="57.323208"
         y="77.867676"
         ry="73.564781"
         clip-path="none" />
    </clipPath>
    <clipPath
       clipPathUnits="userSpaceOnUse"
       id="clipPath3869-8-3">
      <rect
         style="opacity:0.65843626;fill:#7a7a7a;fill-opacity:0.32420092;stroke:none"
         id="rect3871-2-3"
         width="613.99524"
         height="249.67441"
         x="57.323208"
         y="77.867676"
         ry="73.564781"
         clip-path="none" />
    </clipPath>
    <clipPath
       clipPathUnits="userSpaceOnUse"
       id="clipPath3869-8-3-0">
      <rect
         style="opacity:0.65843626;fill:#7a7a7a;fill-opacity:0.32420092;stroke:none"
         id="rect3871-2-3-0"
         width="613.99524"
         height="249.67441"
         x="57.323208"
         y="77.867676"
         ry="73.564781"
         clip-path="none" />
    </clipPath>
    <clipPath
       clipPathUnits="userSpaceOnUse"
       id="clipPath3869-8-3-0-5">
      <rect
         style="opacity:0.65843626;fill:#7a7a7a;fill-opacity:0.32420092;stroke:none"
         id="rect3871-2-3-0-8"
         width="613.99524"
         height="249.67441"
         x="57.323208"
         y="77.867676"
         ry="73.564781"
         clip-path="none" />
    </clipPath>
    <clipPath
       clipPathUnits="userSpaceOnUse"
       id="clipPath3869-8-3-0-5-1">
      <rect
         style="opacity:0.65843626;fill:#7a7a7a;fill-opacity:0.32420092;stroke:none"
         id="rect3871-2-3-0-8-5"
         width="613.99524"
         height="249.67441"
         x="57.323208"
         y="77.867676"
         ry="73.564781"
         clip-path="none" />
    </clipPath>
  </defs>
  <sodipodi:namedview
     id="base"
     pagecolor="#ffffff"
     bordercolor="#666666"
     borderopacity="1.0"
     inkscape:pageopacity="0.0"
     inkscape:pageshadow="2"
     inkscape:zoom="1.1101893"
     inkscape:cx="226.88027"
     inkscape:cy="320.11545"
     inkscape:document-units="px"
     inkscape:current-layer="layer1"
     showgrid="false"
     inkscape:snap-nodes="false"
     inkscape:snap-bbox="true"
     inkscape:window-width="1680"
     inkscape:window-height="1026"
     inkscape:window-x="1680"
     inkscape:window-y="24"
     inkscape:window-maximized="1"
     inkscape:snap-smooth-nodes="false"
     inkscape:object-nodes="false"
     inkscape:object-paths="true" />
  <metadata
     id="metadata7">
    <rdf:RDF>
      <cc:Work
         rdf:about="">
        <dc:format>image/svg+xml</dc:format>
        <dc:type
           rdf:resource="http://purl.org/dc/dcmitype/StillImage" />
        <dc:title />
      </cc:Work>
    </rdf:RDF>
  </metadata>
  <g
     inkscape:label="Layer 1"
     inkscape:groupmode="layer"
     id="layer1"
     transform="translate(0,-842.36218)">
    <path
       sodipodi:nodetypes="sssssssss"
       inkscape:connector-curvature="0"
       id="path3157"
       d="m 73.671698,854.37486 298.599992,0 c 36.941,0 63.1299,28.95933 57.7813,61.26249 l -11.276,68.10189 c -5.3486,32.30316 -22.0977,59.00636 -59.0378,58.75366 l -274.945592,-1.8811 c -36.940092,-0.2527 -54.634362,-18.8484 -59.673962,-51.22925 -3.92341,-25.209 -4.9227,-35.92229 -11.77024,-75.62703 -5.5696904,-32.29533 23.38135,-59.38066 60.322302,-59.38066 z"
       style="fill:none;stroke:#000000;stroke-width:19.04599380000000153;stroke-linecap:butt;stroke-linejoin:miter;stroke-miterlimit:4;stroke-opacity:1;stroke-dasharray:none" />
    <path
       sodipodi:type="arc"
       style="opacity:0.65843626000000000;fill:#000000;fill-opacity:1;stroke:none"
       id="path3163"
       sodipodi:cx="214.00664"
       sodipodi:cy="425.62845"
       sodipodi:rx="15.286188"
       sodipodi:ry="15.286188"
       d="m 229.29283,425.62845 c 0,8.44233 -6.84386,15.28619 -15.28619,15.28619 -8.44233,0 -15.28619,-6.84386 -15.28619,-15.28619 0,-8.44233 6.84386,-15.28619 15.28619,-15.28619 8.44233,0 15.28619,6.84386 15.28619,15.28619 z"
       transform="matrix(1.1755526,0,0,1.1755526,-161.26246,393.19181)" />
    <path
       transform="matrix(1.1755526,0,0,1.1755526,-99.262456,393.19181)"
       d="m 229.29283,425.62845 c 0,8.44233 -6.84386,15.28619 -15.28619,15.28619 -8.44233,0 -15.28619,-6.84386 -15.28619,-15.28619 0,-8.44233 6.84386,-15.28619 15.28619,-15.28619 8.44233,0 15.28619,6.84386 15.28619,15.28619 z"
       sodipodi:ry="15.286188"
       sodipodi:rx="15.286188"
       sodipodi:cy="425.62845"
       sodipodi:cx="214.00664"
       id="path3933"
       style="opacity:0.65843626000000000;fill:#000000;fill-opacity:1;stroke:none"
       sodipodi:type="arc" />
    <path
       sodipodi:type="arc"
       style="opacity:0.65843626000000000;fill:#000000;fill-opacity:1;stroke:none"
       id="path3935"
       sodipodi:cx="214.00664"
       sodipodi:cy="425.62845"
       sodipodi:rx="15.286188"
       sodipodi:ry="15.286188"
       d="m 229.29283,425.62845 c 0,8.44233 -6.84386,15.28619 -15.28619,15.28619 -8.44233,0 -15.28619,-6.84386 -15.28619,-15.28619 0,-8.44233 6.84386,-15.28619 15.28619,-15.28619 8.44233,0 15.28619,6.84386 15.28619,15.28619 z"
       transform="matrix(1.1755526,0,0,1.1755526,-35.26245,393.19181)" />
    <path
       transform="matrix(1.1755526,0,0,1.1755526,28.737566,393.19181)"
       d="m 229.29283,425.62845 c 0,8.44233 -6.84386,15.28619 -15.28619,15.28619 -8.44233,0 -15.28619,-6.84386 -15.28619,-15.28619 0,-8.44233 6.84386,-15.28619 15.28619,-15.28619 8.44233,0 15.28619,6.84386 15.28619,15.28619 z"
       sodipodi:ry="15.286188"
       sodipodi:rx="15.286188"
       sodipodi:cy="425.62845"
       sodipodi:cx="214.00664"
       id="path3937"
       style="opacity:0.65843626000000000;fill:#000000;fill-opacity:1;stroke:none"
       sodipodi:type="arc" />
    <path
       sodipodi:type="arc"
       style="opacity:0.65843626000000000;fill:#000000;fill-opacity:1;stroke:none"
       id="path3939"
       sodipodi:cx="214.00664"
       sodipodi:cy="425.62845"
       sodipodi:rx="15.286188"
       sodipodi:ry="15.286188"
       d="m 229.29283,425.62845 c 0,8.44233 -6.84386,15.28619 -15.28619,15.28619 -8.44233,0 -15.28619,-6.84386 -15.28619,-15.28619 0,-8.44233 6.84386,-15.28619 15.28619,-15.28619 8.44233,0 15.28619,6.84386 15.28619,15.28619 z"
       transform="matrix(1.1755526,0,0,1.1755526,90.737608,393.19181)" />
    <path
       transform="matrix(1.1755526,0,0,1.1755526,-131.26246,449.1918)"
       d="m 229.29283,425.62845 c 0,8.44233 -6.84386,15.28619 -15.28619,15.28619 -8.44233,0 -15.28619,-6.84386 -15.28619,-15.28619 0,-8.44233 6.84386,-15.28619 15.28619,-15.28619 8.44233,0 15.28619,6.84386 15.28619,15.28619 z"
       sodipodi:ry="15.286188"
       sodipodi:rx="15.286188"
       sodipodi:cy="425.62845"
       sodipodi:cx="214.00664"
       id="path3941"
       style="opacity:0.65843626000000000;fill:#000000;fill-opacity:1;stroke:none"
       sodipodi:type="arc" />
    <path
       sodipodi:type="arc"
       style="opacity:0.65843626000000000;fill:#000000;fill-opacity:1;stroke:none"
       id="path3943"
       sodipodi:cx="214.00664"
       sodipodi:cy="425.62845"
       sodipodi:rx="15.286188"
       sodipodi:ry="15.286188"
       d="m 229.29283,425.62845 c 0,8.44233 -6.84386,15.28619 -15.28619,15.28619 -8.44233,0 -15.28619,-6.84386 -15.28619,-15.28619 0,-8.44233 6.84386,-15.28619 15.28619,-15.28619 8.44233,0 15.28619,6.84386 15.28619,15.28619 z"
       transform="matrix(1.1755526,0,0,1.1755526,-69.26245,449.1918)" />
    <path
       transform="matrix(1.1755526,0,0,1.1755526,-5.2624343,449.1918)"
       d="m 229.29283,425.62845 c 0,8.44233 -6.84386,15.28619 -15.28619,15.28619 -8.44233,0 -15.28619,-6.84386 -15.28619,-15.28619 0,-8.44233 6.84386,-15.28619 15.28619,-15.28619 8.44233,0 15.28619,6.84386 15.28619,15.28619 z"
       sodipodi:ry="15.286188"
       sodipodi:rx="15.286188"
       sodipodi:cy="425.62845"
       sodipodi:cx="214.00664"
       id="path3945"
       style="opacity:0.65843626000000000;fill:#000000;fill-opacity:1;stroke:none"
       sodipodi:type="arc" />
    <path
       sodipodi:type="arc"
       style="opacity:0.65843626000000000;fill:#000000;fill-opacity:1;stroke:none"
       id="path3947"
       sodipodi:cx="214.00664"
       sodipodi:cy="425.62845"
       sodipodi:rx="15.286188"
       sodipodi:ry="15.286188"
       d="m 229.29283,425.62845 c 0,8.44233 -6.84386,15.28619 -15.28619,15.28619 -8.44233,0 -15.28619,-6.84386 -15.28619,-15.28619 0,-8.44233 6.84386,-15.28619 15.28619,-15.28619 8.44233,0 15.28619,6.84386 15.28619,15.28619 z"
       transform="matrix(1.1755526,0,0,1.1755526,58.737606,449.1918)" />
    <path
       transform="matrix(1.1755526,0,0,1.1755526,120.7376,449.1918)"
       d="m 229.29283,425.62845 c 0,8.44233 -6.84386,15.28619 -15.28619,15.28619 -8.44233,0 -15.28619,-6.84386 -15.28619,-15.28619 0,-8.44233 6.84386,-15.28619 15.28619,-15.28619 8.44233,0 15.28619,6.84386 15.28619,15.28619 z"
       sodipodi:ry="15.286188"
       sodipodi:rx="15.286188"
       sodipodi:cy="425.62845"
       sodipodi:cx="214.00664"
       id="path3949"
       style="opacity:0.65843626000000000;fill:#000000;fill-opacity:1;stroke:none"
       sodipodi:type="arc" />
    <path
       sodipodi:type="arc"
       style="opacity:0.65843626000000000;fill:#000000;fill-opacity:1;stroke:none"
       id="path3951"
       sodipodi:cx="214.00664"
       sodipodi:cy="425.62845"
       sodipodi:rx="15.286188"
       sodipodi:ry="15.286188"
       d="m 229.29283,425.62845 c 0,8.44233 -6.84386,15.28619 -15.28619,15.28619 -8.44233,0 -15.28619,-6.84386 -15.28619,-15.28619 0,-8.44233 6.84386,-15.28619 15.28619,-15.28619 8.44233,0 15.28619,6.84386 15.28619,15.28619 z"
       transform="matrix(1.1755526,0,0,1.1755526,-161.26246,503.1918)" />
    <path
       transform="matrix(1.1755526,0,0,1.1755526,-99.262456,503.1918)"
       d="m 229.29283,425.62845 c 0,8.44233 -6.84386,15.28619 -15.28619,15.28619 -8.44233,0 -15.28619,-6.84386 -15.28619,-15.28619 0,-8.44233 6.84386,-15.28619 15.28619,-15.28619 8.44233,0 15.28619,6.84386 15.28619,15.28619 z"
       sodipodi:ry="15.286188"
       sodipodi:rx="15.286188"
       sodipodi:cy="425.62845"
       sodipodi:cx="214.00664"
       id="path3953"
       style="opacity:0.65843626000000000;fill:#000000;fill-opacity:1;stroke:none"
       sodipodi:type="arc" />
    <path
       sodipodi:type="arc"
       style="opacity:0.65843626000000000;fill:#000000;fill-opacity:1;stroke:none"
       id="path3955"
       sodipodi:cx="214.00664"
       sodipodi:cy="425.62845"
       sodipodi:rx="15.286188"
       sodipodi:ry="15.286188"
       d="m 229.29283,425.62845 c 0,8.44233 -6.84386,15.28619 -15.28619,15.28619 -8.44233,0 -15.28619,-6.84386 -15.28619,-15.28619 0,-8.44233 6.84386,-15.28619 15.28619,-15.28619 8.44233,0 15.28619,6.84386 15.28619,15.28619 z"
       transform="matrix(1.1755526,0,0,1.1755526,-35.26245,503.1918)" />
    <path
       transform="matrix(1.1755526,0,0,1.1755526,28.737566,503.1918)"
       d="m 229.29283,425.62845 c 0,8.44233 -6.84386,15.28619 -15.28619,15.28619 -8.44233,0 -15.28619,-6.84386 -15.28619,-15.28619 0,-8.44233 6.84386,-15.28619 15.28619,-15.28619 8.44233,0 15.28619,6.84386 15.28619,15.28619 z"
       sodipodi:ry="15.286188"
       sodipodi:rx="15.286188"
       sodipodi:cy="425.62845"
       sodipodi:cx="214.00664"
       id="path3957"
       style="opacity:0.65843626000000000;fill:#000000;fill-opacity:1;stroke:none"
       sodipodi:type="arc" />
    <path
       sodipodi:type="arc"
       style="opacity:0.65843626000000000;fill:#000000;fill-opacity:1;stroke:none"
       id="path3959"
       sodipodi:cx="214.00664"
       sodipodi:cy="425.62845"
       sodipodi:rx="15.286188"
       sodipodi:ry="15.286188"
       d="m 229.29283,425.62845 c 0,8.44233 -6.84386,15.28619 -15.28619,15.28619 -8.44233,0 -15.28619,-6.84386 -15.28619,-15.28619 0,-8.44233 6.84386,-15.28619 15.28619,-15.28619 8.44233,0 15.28619,6.84386 15.28619,15.28619 z"
       transform="matrix(1.1755526,0,0,1.1755526,90.737608,503.1918)" />
    <path
       style="fill:#579fe3;fill-opacity:1;stroke:none"
       d="m 201.42607,1031.5739 c -114.459122,-0.8704 -127.793212,-1.1654 -134.093384,-2.9668 -8.52336,-2.4371 -14.12659,-5.7827 -19.7464,-11.7903 -7.7424,-8.2767 -11.01309,-17.36648 -14.11942,-39.24019 -0.80908,-5.69722 -3.51561,-23.12668 -6.01452,-38.73213 -5.40036,-33.72482 -5.49836,-38.486 -0.98901,-48.05229 5.27033,-11.18069 15.86363,-19.47545 30.84317,-24.15082 l 6.7556,-2.10854 158.531524,0 c 151.24645,0 158.77771,0.076 163.88891,1.65324 14.01658,4.32539 24.43392,12.58969 29.95752,23.76595 5.44013,11.00735 5.28724,15.60612 -1.95485,58.80068 -6.93449,41.35986 -8.22007,47.01551 -13.01091,57.2389 -5.56099,11.8669 -13.92127,19.8647 -25.20765,24.1146 -4.82902,1.8184 -6.74255,1.9074 -43.78185,2.0357 -21.30268,0.074 -80.27911,-0.1818 -131.05873,-0.568 l 0,0 z M 97.631588,1020.3192 c 9.369692,-3.9149 13.596982,-14.9091 9.337632,-24.285 -7.109212,-15.64907 -29.892442,-13.63375 -34.329012,3.0366 -3.85663,14.4913 10.97759,27.1037 24.99138,21.2484 z m 65.025652,-1.6273 c 4.16628,-2.7572 8.12302,-9.8355 8.12959,-14.5432 0.0169,-12.12508 -10.78785,-20.88761 -22.63006,-18.35268 -12.36879,2.64765 -18.24202,17.79968 -10.92541,28.18598 5.62731,7.9882 17.22554,10.1366 25.42588,4.7099 z m 62.27177,0.9255 c 11.33613,-5.9847 13.07619,-21.49154 3.34618,-29.82006 -12.04686,-10.31166 -30.46063,-1.62978 -30.43829,14.35136 0.005,3.9596 3.86972,11.5958 6.99347,13.8201 6.18095,4.4013 13.71431,5.0192 20.09864,1.6486 z m 63.89183,0.069 c 5.26803,-2.6645 8.85879,-7.8992 9.57675,-13.9612 2.02199,-17.07259 -18.35014,-27.15404 -30.75852,-15.2213 -15.072,14.4943 2.46174,38.6509 21.18177,29.1825 l 0,0 z m 63.71506,-0.8762 c 4.08372,-2.7025 8.32244,-10.1783 8.32244,-14.6781 0,-12.43258 -11.3534,-21.20949 -23.39509,-18.08591 -15.87551,4.11805 -18.23977,26.15511 -3.61528,33.69791 5.56482,2.8701 13.54203,2.4715 18.68793,-0.934 l 0,10e-5 z M 128.83028,965.62689 c 5.87352,-3.35954 8.91842,-7.94171 9.36317,-14.09032 0.21066,-2.91236 -0.077,-6.68921 -0.63935,-8.393 -1.28345,-3.88892 -5.87086,-8.66336 -9.98394,-10.39099 -7.65268,-3.21438 -17.93921,-0.31728 -22.30671,6.28248 -2.74494,4.14789 -3.73213,12.18265 -2.10322,17.11829 1.13261,3.43184 5.41249,7.96351 9.54223,10.10361 4.05594,2.10184 11.88643,1.79593 16.12782,-0.63007 l 0,0 z m 60.67752,0.64739 c 12.07046,-5.04336 14.76782,-21.22411 5.05106,-30.29992 -3.45753,-3.22946 -7.00411,-4.46349 -12.82966,-4.46406 -9.96473,-9.9e-4 -17.56994,7.89499 -17.47343,18.14148 0.0704,7.47759 4.1378,13.90782 10.59825,16.75513 3.6769,1.62053 10.60802,1.5578 14.65378,-0.13263 l 0,0 z m 63.95306,0 c 6.81032,-2.84553 10.96208,-9.18295 10.99774,-16.78738 0.0256,-5.45544 -0.97029,-7.93758 -4.95356,-12.34658 -7.98397,-8.8373 -22.80353,-7.26617 -28.85453,3.05907 -5.4005,9.21525 -1.42648,21.98397 8.15657,26.20752 3.6769,1.62053 10.60802,1.5578 14.65378,-0.13263 z m 63.95306,0 c 7.55967,-3.15863 11.39262,-9.52209 10.85176,-18.0161 -0.90851,-14.26782 -15.88237,-21.53496 -28.41406,-13.78995 -8.91019,5.5068 -10.28959,20.30665 -2.60206,27.91806 5.2503,5.1983 13.30933,6.7522 20.16436,3.88799 l 0,0 z m 62.15156,0 c 12.07046,-5.04336 14.76782,-21.22411 5.05106,-30.29992 -3.42801,-3.20189 -6.99848,-4.46349 -12.63382,-4.46406 -10.41873,-10e-4 -17.72057,7.47489 -17.72057,18.14315 0,7.48496 4.02187,13.80949 10.64955,16.74682 3.67027,1.62664 10.60179,1.56704 14.65378,-0.12599 l 0,0 z M 98.824398,909.72623 c 10.508082,-5.54762 12.976942,-19.2219 5.091912,-28.20247 -9.910422,-11.28734 -28.036242,-6.69287 -31.310122,7.93636 -3.42951,15.32467 12.40056,27.56097 26.21821,20.26611 z m 63.744372,-0.97005 c 4.47135,-3.09864 8.24032,-10.14408 8.21211,-15.35111 -0.044,-8.10721 -6.14409,-15.63421 -14.24565,-17.57775 -12.16151,-2.9175 -23.81015,7.1983 -22.42635,19.47529 0.64186,5.69462 4.76156,11.86947 9.66936,14.49302 5.66814,3.03 13.54726,2.59415 18.79053,-1.03945 z m 63.86251,0.16293 c 4.30739,-2.8505 8.32244,-10.24034 8.32244,-15.31778 0,-6.34868 -4.36926,-13.5886 -9.90823,-16.41807 -9.41026,-4.80705 -21.50304,-0.27013 -25.62564,9.61413 -3.62962,8.7023 0.91837,19.67981 9.86257,23.80536 4.36038,2.01124 13.03807,1.16911 17.34886,-1.68364 l 0,0 z m 62.45079,0.80712 c 10.44398,-5.51378 12.92886,-19.27668 5.09191,-28.20247 -5.06854,-5.77275 -11.44281,-7.55673 -19.07399,-5.33829 -14.38513,4.18187 -17.48336,24.1273 -5.02816,32.36976 5.91616,3.91513 12.98737,4.3507 19.01024,1.171 z m 63.55617,-0.95632 c 12.76661,-8.44854 9.8951,-28.34044 -4.70377,-32.58444 -7.63117,-2.21844 -14.00544,-0.43446 -19.07398,5.33829 -7.86489,8.95762 -5.3632,22.62799 5.17543,28.28082 5.44417,2.92021 13.28512,2.48409 18.60232,-1.03467 l 0,0 z"
       id="path4356"
       inkscape:connector-curvature="0" />
  </g>
</svg>
